<?xml version="1.0" standalone="no"?><!DOCTYPE svg PUBLIC "-//W3C//DTD SVG 1.1//EN" "http://www.w3.org/Graphics/SVG/1.1/DTD/svg11.dtd"><svg class="icon" width="200px" height="200.00px" viewBox="0 0 1024 1024" version="1.1" xmlns="http://www.w3.org/2000/svg"><path fill="#dfdfd8" d="M73.142857 274.285714v292.571429q0 34.870857 12.836572 67.291428 13.933714 35.236571 40.722285 62.006858 26.770286 26.788571 61.988572 40.722285Q221.129143 749.714286 256 749.714286h109.714286v146.285714h73.142857v-146.285714h146.285714v146.285714h73.142857v-146.285714h109.714286q34.870857 0 67.291429-12.836572 35.236571-13.952 62.006857-40.722285 26.788571-26.770286 40.722285-61.988572Q950.857143 601.728 950.857143 566.857143V274.285714q0-34.870857-12.836572-67.291428-13.952-35.236571-40.722285-62.006857-26.770286-26.788571-61.988572-40.722286Q802.870857 91.428571 768 91.428571H256q-34.870857 0-67.291429 12.836572-35.236571 13.933714-62.006857 40.722286-26.788571 26.770286-40.722285 61.988571Q73.142857 239.414857 73.142857 274.285714z m105.270857 370.157715Q146.285714 612.297143 146.285714 566.857143V274.285714q0-45.44 32.128-77.586285Q210.56 164.571429 256 164.571429h512q45.44 0 77.586286 32.128Q877.714286 228.845714 877.714286 274.285714v292.571429q0 45.44-32.128 77.586286Q813.44 676.571429 768 676.571429H256q-45.44 0-77.586286-32.128zM219.428571 877.714286m36.571429 0l512 0q36.571429 0 36.571429 36.571428l0 0q0 36.571429-36.571429 36.571429l-512 0q-36.571429 0-36.571429-36.571429l0 0q0-36.571429 36.571429-36.571428ZM443.428571 375.990857q3.2-2.56 5.76-5.796571 2.56-3.218286 4.352-6.930286 1.773714-3.693714 2.688-7.716571 0.914286-4.004571 0.914286-8.118858 0-1.792-0.182857-3.584t-0.512-3.547428q-0.365714-1.773714-0.877714-3.474286-0.530286-1.737143-1.206857-3.382857-0.694857-1.664-1.536-3.254857-0.841143-1.572571-1.846858-3.072-1.005714-1.499429-2.139428-2.889143-1.133714-1.389714-2.413714-2.651429-1.28-1.28-2.651429-2.413714-1.389714-1.133714-2.889143-2.139428-1.499429-1.005714-3.072-1.828572-1.590857-0.859429-3.254857-1.554286-1.645714-0.676571-3.364571-1.206857-1.718857-0.512-3.474286-0.877714-1.773714-0.347429-3.565714-0.512Q422.363429 310.857143 420.571429 310.857143q-6.217143 0-12.105143 2.066286-5.869714 2.048-10.733715 5.942857l-82.505142 66.011428q-17.170286 13.714286-17.170286 35.693715t17.170286 35.693714l82.468571 65.993143h0.036571q4.864 3.913143 10.733715 5.961143 5.869714 2.066286 12.105143 2.066285 1.792 0 3.584-0.182857t3.547428-0.512q1.773714-0.365714 3.474286-0.877714 1.737143-0.530286 3.382857-1.206857 1.664-0.694857 3.254857-1.536 1.572571-0.841143 3.072-1.846857 1.499429-1.005714 2.889143-2.139429 1.389714-1.133714 2.651429-2.413714 1.28-1.28 2.413714-2.651429 1.133714-1.389714 2.139428-2.889143 1.005714-1.499429 1.828572-3.072 0.859429-1.590857 1.554286-3.254857 0.676571-1.645714 1.206857-3.364571 0.512-1.718857 0.877714-3.474286 0.347429-1.773714 0.512-3.565714 0.182857-1.792 0.182857-3.584 0-4.114286-0.914286-8.118857-0.914286-4.022857-2.688-7.716572-1.792-3.712-4.352-6.948571-2.56-3.2-5.778285-5.778286L387.693714 420.571429l55.716572-44.580572zM580.571429 375.990857q-3.2-2.56-5.76-5.796571-2.56-3.218286-4.352-6.930286-1.773714-3.693714-2.688-7.716571Q566.857143 351.542857 566.857143 347.428571q0-1.792 0.182857-3.584t0.512-3.547428q0.365714-1.773714 0.877714-3.474286 0.530286-1.737143 1.206857-3.382857 0.694857-1.664 1.536-3.254857 0.841143-1.572571 1.846858-3.072 1.005714-1.499429 2.139428-2.889143 1.133714-1.389714 2.413714-2.651429 1.28-1.28 2.651429-2.413714 1.389714-1.133714 2.889143-2.139428 1.499429-1.005714 3.072-1.828572 1.590857-0.859429 3.254857-1.554286 1.645714-0.676571 3.364571-1.206857 1.718857-0.512 3.474286-0.877714 1.773714-0.347429 3.565714-0.512 1.792-0.182857 3.584-0.182857 6.217143 0 12.105143 2.066286 5.869714 2.048 10.733715 5.942857l82.505142 66.011428q17.170286 13.714286 17.170286 35.693715t-17.170286 35.693714l-82.468571 65.993143h-0.036571q-4.864 3.913143-10.733715 5.961143Q609.664 530.285714 603.428571 530.285714q-1.792 0-3.584-0.182857t-3.547428-0.512q-1.773714-0.365714-3.474286-0.877714-1.737143-0.530286-3.382857-1.206857-1.664-0.694857-3.254857-1.536-1.572571-0.841143-3.072-1.846857-1.499429-1.005714-2.889143-2.139429-1.389714-1.133714-2.651429-2.413714-1.28-1.28-2.413714-2.651429-1.133714-1.389714-2.139428-2.889143-1.005714-1.499429-1.828572-3.072-0.859429-1.590857-1.554286-3.254857-0.676571-1.645714-1.206857-3.364571-0.512-1.718857-0.877714-3.474286-0.347429-1.773714-0.512-3.565714Q566.857143 495.506286 566.857143 493.714286q0-4.114286 0.914286-8.118857 0.914286-4.022857 2.688-7.716572 1.792-3.712 4.352-6.948571 2.56-3.2 5.778285-5.778286L636.306286 420.571429l-55.716572-44.580572z" /></svg>