<?xml version="1.0" standalone="no"?><!DOCTYPE svg PUBLIC "-//W3C//DTD SVG 1.1//EN" "http://www.w3.org/Graphics/SVG/1.1/DTD/svg11.dtd"><svg height="253" node-id="1" sillyvg="true" template-height="253" template-width="257" version="1.1" viewBox="0 0 257 253" width="257" xmlns="http://www.w3.org/2000/svg" xmlns:xlink="http://www.w3.org/1999/xlink"><defs node-id="250"></defs><g node-id="550"><g node-id="552"><path d="M 247.84 116.23 C 247.84 74.68 200.55 55.86 175.42 40.99 C 174.89 40.68 174.18 41.02 173.56 41.04 C 160.94 19.00 137.79 4.21 111.30 4.21 C 71.30 4.21 38.88 37.90 38.88 79.46 C 38.88 80.00 38.91 80.53 38.92 81.07 C 38.92 103.56 2.28 118.44 2.28 146.47 C 2.28 188.02 34.70 221.71 74.70 221.71 C 76.98 221.71 79.22 221.58 81.44 221.37 C 110.78 221.37 114.83 248.75 137.32 248.75 C 174.29 248.75 204.77 219.96 209.18 182.79 C 219.36 156.85 247.84 145.12 247.84 116.23 Z" fill="#cfe5ff" fill-opacity="0.72" fill-rule="nonzero" group-id="1,3" node-id="254" stroke="none" target-height="244.532" target-width="245.56299" target-x="2.279" target-y="4.214"></path></g><g node-id="553"><g node-id="577"><g node-id="588"><path d="M 124.31 98.57 C 124.31 100.90 122.40 102.82 120.06 102.82 L 29.68 102.82 C 27.34 102.82 25.43 100.90 25.43 98.57 L 25.43 36.52 C 25.43 34.18 27.34 32.27 29.68 32.27 L 120.06 32.27 C 122.40 32.27 124.31 34.18 124.31 36.52 L 124.31 98.57 Z" fill="#e6eeff" fill-rule="nonzero" group-id="1,4,28,39" node-id="262" stroke="none" target-height="70.546005" target-width="98.879" target-x="25.431" target-y="32.271"></path><path d="M 120.06 104.32 L 29.68 104.32 C 26.51 104.32 23.93 101.74 23.93 98.57 L 23.93 36.52 C 23.93 33.35 26.51 30.77 29.68 30.77 L 120.06 30.77 C 123.23 30.77 125.81 33.35 125.81 36.52 L 125.81 98.57 C 125.81 101.74 123.23 104.32 120.06 104.32 Z M 29.68 33.77 C 28.16 33.77 26.93 35.01 26.93 36.52 L 26.93 98.57 C 26.93 100.08 28.16 101.32 29.68 101.32 L 120.06 101.32 C 121.58 101.32 122.81 100.08 122.81 98.57 L 122.81 36.52 C 122.81 35.01 121.58 33.77 120.06 33.77 L 29.68 33.77 Z" fill="#ccccde" fill-rule="nonzero" group-id="1,4,28,39" node-id="264" stroke="none" target-height="73.546005" target-width="101.879" target-x="23.931" target-y="30.771"></path></g><g node-id="589"><path d="M 25.43 45.50 L 124.29 45.50 L 124.29 62.06 L 25.43 62.06 Z" fill="#d8d8f0" fill-rule="nonzero" group-id="1,4,28,40" node-id="269" stroke="none" target-height="16.560997" target-width="98.86" target-x="25.431" target-y="45.498"></path><path d="M 125.79 63.56 L 23.93 63.56 L 23.93 44.00 L 125.79 44.00 L 125.79 63.56 Z M 26.93 60.56 L 122.79 60.56 L 122.79 47.00 L 26.93 47.00 L 26.93 60.56 Z" fill="#ccccde" fill-rule="nonzero" group-id="1,4,28,40" node-id="271" stroke="none" target-height="19.560997" target-width="101.86" target-x="23.931" target-y="43.998"></path></g><path d="M 32.78 74.92 L 117.29 74.92 L 117.29 88.50 L 32.78 88.50 Z" fill="#ffe7d1" fill-rule="nonzero" group-id="1,4,28" node-id="274" stroke="none" target-height="13.582001" target-width="84.506004" target-x="32.781" target-y="74.917"></path><path d="M 32.78 88.50 L 46.36 74.92 L 51.34 74.92 L 37.76 88.50 Z" fill="#ffffff" fill-rule="nonzero" group-id="1,4,28,41" node-id="278" stroke="none" target-height="13.582001" target-width="18.561" target-x="32.781" target-y="74.917"></path><path d="M 45.97 88.50 L 59.55 74.92 L 64.53 74.92 L 50.95 88.50 Z" fill="#ffffff" fill-rule="nonzero" group-id="1,4,28,41" node-id="280" stroke="none" target-height="13.582001" target-width="18.560997" target-x="45.97" target-y="74.917"></path><path d="M 59.16 88.50 L 72.74 74.92 L 77.72 74.92 L 64.14 88.50 Z" fill="#ffffff" fill-rule="nonzero" group-id="1,4,28,41" node-id="282" stroke="none" target-height="13.582001" target-width="18.563" target-x="59.158" target-y="74.917"></path><path d="M 72.35 88.50 L 85.93 74.92 L 90.91 74.92 L 77.33 88.50 Z" fill="#ffffff" fill-rule="nonzero" group-id="1,4,28,41" node-id="284" stroke="none" target-height="13.582001" target-width="18.562004" target-x="72.348" target-y="74.917"></path><path d="M 85.54 88.50 L 99.12 74.92 L 104.10 74.92 L 90.52 88.50 Z" fill="#ffffff" fill-rule="nonzero" group-id="1,4,28,41" node-id="286" stroke="none" target-height="13.582001" target-width="18.561996" target-x="85.537" target-y="74.917"></path><path d="M 98.73 88.50 L 112.31 74.92 L 117.29 74.92 L 103.70 88.50 Z" fill="#ffffff" fill-rule="nonzero" group-id="1,4,28,41" node-id="288" stroke="none" target-height="13.582001" target-width="18.560005" target-x="98.727" target-y="74.917"></path></g><g node-id="578"><g node-id="591"><path d="M 240.58 169.26 C 239.75 169.26 239.08 168.59 239.08 167.76 L 239.08 148.67 C 239.08 138.98 231.50 131.09 222.20 131.09 C 212.89 131.09 205.32 138.98 205.32 148.67 L 205.32 167.76 C 205.32 168.59 204.64 169.26 203.82 169.26 C 202.99 169.26 202.32 168.59 202.32 167.76 L 202.32 148.67 C 202.32 137.32 211.24 128.09 222.20 128.09 C 233.16 128.09 242.08 137.32 242.08 148.67 L 242.08 167.76 C 242.08 168.59 241.40 169.26 240.58 169.26 Z" fill="#ccccde" fill-rule="nonzero" group-id="1,4,29,42" node-id="296" stroke="none" target-height="41.175995" target-width="39.76001" target-x="202.316" target-y="128.086"></path></g><g node-id="592"><path d="M 233.15 236.59 L 233.15 151.20 L 249.71 151.20 L 249.71 236.59 Z" fill="#cff2e8" fill-rule="nonzero" group-id="1,4,29,43" node-id="301" stroke="none" target-height="85.386" target-width="16.567993" target-x="233.145" target-y="151.2"></path><path d="M 249.71 238.09 L 233.15 238.09 C 232.32 238.09 231.65 237.41 231.65 236.59 L 231.65 151.20 C 231.65 150.37 232.32 149.70 233.15 149.70 L 249.71 149.70 C 250.54 149.70 251.21 150.37 251.21 151.20 L 251.21 236.59 C 251.21 237.41 250.54 238.09 249.71 238.09 Z M 234.65 235.09 L 248.21 235.09 L 248.21 152.70 L 234.65 152.70 L 234.65 235.09 Z" fill="#ccccde" fill-rule="nonzero" group-id="1,4,29,43" node-id="303" stroke="none" target-height="88.386" target-width="19.567993" target-x="231.645" target-y="149.7"></path></g><g node-id="593"><path d="M 166.87 151.20 L 233.14 151.20 L 233.14 236.59 L 166.87 236.59 Z" fill="#dbfff5" fill-rule="nonzero" group-id="1,4,29,44" node-id="308" stroke="none" target-height="85.386" target-width="66.27699" target-x="166.865" target-y="151.2"></path><path d="M 233.14 238.09 L 166.87 238.09 C 166.04 238.09 165.37 237.41 165.37 236.59 L 165.37 151.20 C 165.37 150.37 166.04 149.70 166.87 149.70 L 233.14 149.70 C 233.97 149.70 234.64 150.37 234.64 151.20 L 234.64 236.59 C 234.64 237.41 233.97 238.09 233.14 238.09 Z M 168.37 235.09 L 231.64 235.09 L 231.64 152.70 L 168.37 152.70 L 168.37 235.09 Z" fill="#ccccde" fill-rule="nonzero" group-id="1,4,29,44" node-id="310" stroke="none" target-height="88.386" target-width="69.27701" target-x="165.366" target-y="149.7"></path></g><path d="M 220.09 169.26 C 219.26 169.26 218.59 168.59 218.59 167.76 L 218.59 148.67 C 218.59 138.98 211.01 131.09 201.71 131.09 C 192.40 131.09 184.83 138.98 184.83 148.67 L 184.83 167.76 C 184.83 168.59 184.15 169.26 183.33 169.26 C 182.50 169.26 181.83 168.59 181.83 167.76 L 181.83 148.67 C 181.83 137.32 190.74 128.09 201.71 128.09 C 212.67 128.09 221.59 137.32 221.59 148.67 L 221.59 167.76 C 221.59 168.59 220.91 169.26 220.09 169.26 Z" fill="#ccccde" fill-rule="nonzero" group-id="1,4,29,45" node-id="315" stroke="none" target-height="41.175995" target-width="39.759995" target-x="181.826" target-y="128.086"></path></g><g node-id="579"><g node-id="595"><path d="M 112.71 158.24 C 112.71 160.78 110.63 162.85 108.10 162.85 L 12.72 162.85 C 10.18 162.85 8.11 160.78 8.11 158.24 L 8.11 154.41 C 8.11 151.88 10.18 149.80 12.72 149.80 L 108.10 149.80 C 110.63 149.80 112.71 151.88 112.71 154.41 L 112.71 158.24 Z" fill="#ffdfdf" fill-rule="nonzero" group-id="1,4,30,46" node-id="323" stroke="none" target-height="13.046005" target-width="104.597" target-x="8.11" target-y="149.803"></path><path d="M 108.10 164.35 L 12.72 164.35 C 9.35 164.35 6.61 161.61 6.61 158.24 L 6.61 154.41 C 6.61 151.04 9.35 148.30 12.72 148.30 L 108.10 148.30 C 111.47 148.30 114.21 151.04 114.21 154.41 L 114.21 158.24 C 114.21 161.61 111.47 164.35 108.10 164.35 Z M 12.72 151.30 C 11.00 151.30 9.61 152.70 9.61 154.41 L 9.61 158.24 C 9.61 159.96 11.00 161.35 12.72 161.35 L 108.10 161.35 C 109.81 161.35 111.21 159.96 111.21 158.24 L 111.21 154.41 C 111.21 152.70 109.81 151.30 108.10 151.30 L 12.72 151.30 Z" fill="#ccccde" fill-rule="nonzero" group-id="1,4,30,46" node-id="325" stroke="none" target-height="16.046005" target-width="107.597" target-x="6.61" target-y="148.304"></path></g><g node-id="596"><path d="M 11.43 161.55 L 17.04 209.23 C 18.51 214.86 19.85 219.46 30.28 219.46 L 91.68 219.46 C 99.95 219.46 103.39 214.84 104.78 209.19 L 108.92 161.52 L 11.43 161.55 Z M 35.70 204.18 C 35.70 206.56 33.75 208.51 31.37 208.51 L 29.89 208.51 C 27.51 208.51 25.56 206.56 25.56 204.18 L 25.56 176.77 C 25.56 174.39 27.51 172.44 29.89 172.44 L 31.37 172.44 C 33.75 172.44 35.70 174.39 35.70 176.77 L 35.70 204.18 Z M 55.55 204.18 C 55.55 206.56 53.60 208.51 51.22 208.51 L 49.74 208.51 C 47.36 208.51 45.41 206.56 45.41 204.18 L 45.41 176.77 C 45.41 174.39 47.36 172.44 49.74 172.44 L 51.22 172.44 C 53.60 172.44 55.55 174.39 55.55 176.77 L 55.55 204.18 Z M 75.39 204.18 C 75.39 206.56 73.45 208.51 71.07 208.51 L 69.59 208.51 C 67.21 208.51 65.26 206.56 65.26 204.18 L 65.26 176.77 C 65.26 174.39 67.21 172.44 69.59 172.44 L 71.07 172.44 C 73.45 172.44 75.39 174.39 75.39 176.77 L 75.39 204.18 Z M 94.82 204.18 C 94.82 206.56 92.87 208.51 90.49 208.51 L 89.01 208.51 C 86.63 208.51 84.68 206.56 84.68 204.18 L 84.68 176.77 C 84.68 174.39 86.63 172.44 89.01 172.44 L 90.49 172.44 C 92.87 172.44 94.82 174.39 94.82 176.77 L 94.82 204.18 Z" fill="#ffdfdf" fill-rule="nonzero" group-id="1,4,30,47" node-id="330" stroke="none" target-height="57.942993" target-width="97.491" target-x="11.431" target-y="161.52"></path><path d="M 91.68 220.96 L 30.28 220.96 C 18.55 220.96 17.05 215.19 15.59 209.61 L 15.55 209.41 L 9.74 160.05 L 110.56 160.02 L 106.23 209.55 C 104.38 217.12 99.48 220.96 91.68 220.96 Z M 18.52 208.95 C 19.89 214.19 20.93 217.96 30.28 217.96 L 91.68 217.96 C 98.06 217.96 101.75 215.10 103.29 208.94 L 107.29 163.02 L 13.12 163.05 L 18.52 208.95 Z M 90.49 210.01 L 89.01 210.01 C 85.80 210.01 83.18 207.40 83.18 204.18 L 83.18 176.77 C 83.18 173.56 85.80 170.94 89.01 170.94 L 90.49 170.94 C 93.70 170.94 96.32 173.56 96.32 176.77 L 96.32 204.18 C 96.32 207.40 93.70 210.01 90.49 210.01 Z M 89.01 173.94 C 87.45 173.94 86.18 175.21 86.18 176.77 L 86.18 204.18 C 86.18 205.74 87.45 207.01 89.01 207.01 L 90.49 207.01 C 92.05 207.01 93.32 205.74 93.32 204.18 L 93.32 176.77 C 93.32 175.21 92.05 173.94 90.49 173.94 L 89.01 173.94 Z M 71.07 210.01 L 69.59 210.01 C 66.37 210.01 63.76 207.40 63.76 204.18 L 63.76 176.77 C 63.76 173.56 66.37 170.94 69.59 170.94 L 71.07 170.94 C 74.28 170.94 76.89 173.56 76.89 176.77 L 76.89 204.18 C 76.89 207.40 74.28 210.01 71.07 210.01 Z M 69.59 173.94 C 68.03 173.94 66.76 175.21 66.76 176.77 L 66.76 204.18 C 66.76 205.74 68.03 207.01 69.59 207.01 L 71.07 207.01 C 72.63 207.01 73.89 205.74 73.89 204.18 L 73.89 176.77 C 73.89 175.21 72.63 173.94 71.07 173.94 L 69.59 173.94 Z M 51.22 210.01 L 49.74 210.01 C 46.52 210.01 43.91 207.40 43.91 204.18 L 43.91 176.77 C 43.91 173.56 46.52 170.94 49.74 170.94 L 51.22 170.94 C 54.43 170.94 57.05 173.56 57.05 176.77 L 57.05 204.18 C 57.05 207.40 54.43 210.01 51.22 210.01 Z M 49.74 173.94 C 48.18 173.94 46.91 175.21 46.91 176.77 L 46.91 204.18 C 46.91 205.74 48.18 207.01 49.74 207.01 L 51.22 207.01 C 52.78 207.01 54.05 205.74 54.05 204.18 L 54.05 176.77 C 54.05 175.21 52.78 173.94 51.22 173.94 L 49.74 173.94 Z M 31.37 210.01 L 29.89 210.01 C 26.68 210.01 24.06 207.40 24.06 204.18 L 24.06 176.77 C 24.06 173.56 26.68 170.94 29.89 170.94 L 31.37 170.94 C 34.58 170.94 37.20 173.56 37.20 176.77 L 37.20 204.18 C 37.20 207.40 34.58 210.01 31.37 210.01 Z M 29.89 173.94 C 28.33 173.94 27.06 175.21 27.06 176.77 L 27.06 204.18 C 27.06 205.74 28.33 207.01 29.89 207.01 L 31.37 207.01 C 32.93 207.01 34.20 205.74 34.20 204.18 L 34.20 176.77 C 34.20 175.21 32.93 173.94 31.37 173.94 L 29.89 173.94 Z" fill="#ccccde" fill-rule="nonzero" group-id="1,4,30,47" node-id="332" stroke="none" target-height="60.942993" target-width="100.813995" target-x="9.744" target-y="160.02"></path></g><g node-id="597"><g node-id="598"><path d="M 55.43 160.85 L 55.43 119.80 C 55.43 117.42 57.38 115.47 59.76 115.47 L 61.63 115.47 C 64.01 115.47 65.96 117.42 65.96 119.80 L 65.96 160.85" fill="#ffdfdf" fill-rule="nonzero" group-id="1,4,30,48,49" node-id="339" stroke="none" target-height="45.380005" target-width="10.529999" target-x="55.43" target-y="115.47"></path><path d="M 65.96 162.35 C 65.13 162.35 64.46 161.68 64.46 160.85 L 64.46 119.80 C 64.46 118.24 63.19 116.97 61.63 116.97 L 59.76 116.97 C 58.20 116.97 56.93 118.24 56.93 119.80 L 56.93 160.85 C 56.93 161.68 56.26 162.35 55.43 162.35 C 54.60 162.35 53.93 161.68 53.93 160.85 L 53.93 119.80 C 53.93 116.58 56.54 113.97 59.76 113.97 L 61.63 113.97 C 64.84 113.97 67.46 116.58 67.46 119.80 L 67.46 160.85 C 67.46 161.68 66.79 162.35 65.96 162.35 Z" fill="#ccccde" fill-rule="nonzero" group-id="1,4,30,48,49" node-id="341" stroke="none" target-height="48.380005" target-width="13.529999" target-x="53.93" target-y="113.97"></path></g><g node-id="599"><path d="M 65.96 160.85 L 65.96 119.80 C 65.96 117.42 64.01 115.47 61.63 115.47 L 59.76 115.47 C 57.38 115.47 55.43 117.42 55.43 119.80 L 55.43 160.85 L 65.96 160.85 L 65.96 160.85 Z" fill="#ffdfdf" fill-rule="nonzero" group-id="1,4,30,48,50" node-id="346" stroke="none" target-height="45.380005" target-width="10.529999" target-x="55.43" target-y="115.47"></path><path d="M 65.96 162.35 L 55.43 162.35 C 54.60 162.35 53.93 161.68 53.93 160.85 L 53.93 119.80 C 53.93 116.58 56.54 113.97 59.76 113.97 L 61.63 113.97 C 64.84 113.97 67.46 116.58 67.46 119.80 L 67.46 160.85 C 67.46 161.68 66.79 162.35 65.96 162.35 Z M 56.93 159.35 L 64.46 159.35 L 64.46 119.80 C 64.46 118.24 63.19 116.97 61.63 116.97 L 59.76 116.97 C 58.20 116.97 56.93 118.24 56.93 119.80 L 56.93 159.35 Z" fill="#ccccde" fill-rule="nonzero" group-id="1,4,30,48,50" node-id="348" stroke="none" target-height="48.380005" target-width="13.529999" target-x="53.93" target-y="113.97"></path></g></g></g></g><g node-id="554"><g node-id="580"><path d="M 199.78 66.32 C 199.78 77.35 190.84 86.29 179.81 86.29 C 168.78 86.29 159.84 77.35 159.84 66.32 C 159.84 55.29 168.78 46.35 179.81 46.35 C 190.84 46.35 199.78 55.29 199.78 66.32 Z" fill="#ffe2d6" fill-rule="nonzero" group-id="1,5,31" node-id="358" stroke="none" target-height="39.936" target-width="39.93599" target-x="159.841" target-y="46.355"></path><path d="M 179.81 87.79 C 167.97 87.79 158.34 78.16 158.34 66.32 C 158.34 54.48 167.97 44.85 179.81 44.85 C 191.65 44.85 201.28 54.49 201.28 66.32 C 201.28 78.16 191.65 87.79 179.81 87.79 Z M 179.81 47.85 C 169.62 47.85 161.34 56.14 161.34 66.32 C 161.34 76.51 169.62 84.79 179.81 84.79 C 189.99 84.79 198.28 76.51 198.28 66.32 C 198.28 56.14 189.99 47.85 179.81 47.85 Z" fill="#ccccde" fill-rule="nonzero" group-id="1,5,31" node-id="360" stroke="none" target-height="42.936" target-width="42.936005" target-x="158.34" target-y="44.855"></path></g><g node-id="581"><path d="M 194.14 66.19 C 194.14 74.04 187.78 80.40 179.94 80.40 C 172.09 80.40 165.73 74.04 165.73 66.19 C 165.73 58.35 172.09 51.99 179.94 51.99 C 187.78 51.99 194.14 58.35 194.14 66.19 Z" fill="#fff6d6" fill-rule="nonzero" group-id="1,5,32" node-id="365" stroke="none" target-height="28.408" target-width="28.408005" target-x="165.734" target-y="51.99"></path><path d="M 179.94 81.90 C 171.28 81.90 164.23 74.85 164.23 66.19 C 164.23 57.53 171.28 50.49 179.94 50.49 C 188.60 50.49 195.64 57.53 195.64 66.19 C 195.64 74.85 188.60 81.90 179.94 81.90 Z M 179.94 53.49 C 172.93 53.49 167.23 59.19 167.23 66.19 C 167.23 73.20 172.93 78.90 179.94 78.90 C 186.94 78.90 192.64 73.20 192.64 66.19 C 192.64 59.19 186.94 53.49 179.94 53.49 Z" fill="#ccccde" fill-rule="nonzero" group-id="1,5,32" node-id="367" stroke="none" target-height="31.408" target-width="31.408005" target-x="164.233" target-y="50.49"></path></g></g><g node-id="555"><g node-id="582"><path d="M 64.16 216.50 C 64.16 227.53 55.22 236.47 44.20 236.47 C 33.17 236.47 24.23 227.53 24.23 216.50 C 24.23 205.47 33.17 196.53 44.20 196.53 C 55.22 196.53 64.16 205.47 64.16 216.50 Z" fill="#ffe2d6" fill-rule="nonzero" group-id="1,6,33" node-id="375" stroke="none" target-height="39.93599" target-width="39.936005" target-x="24.227" target-y="196.531"></path><path d="M 44.20 237.97 C 32.36 237.97 22.73 228.34 22.73 216.50 C 22.73 204.66 32.36 195.03 44.20 195.03 C 56.03 195.03 65.66 204.66 65.66 216.50 C 65.66 228.34 56.03 237.97 44.20 237.97 Z M 44.20 198.03 C 34.01 198.03 25.73 206.31 25.73 216.50 C 25.73 226.68 34.01 234.97 44.20 234.97 C 54.38 234.97 62.66 226.68 62.66 216.50 C 62.66 206.31 54.38 198.03 44.20 198.03 Z" fill="#ccccde" fill-rule="nonzero" group-id="1,6,33" node-id="377" stroke="none" target-height="42.93599" target-width="42.936005" target-x="22.727" target-y="195.031"></path></g><g node-id="583"><path d="M 58.53 216.37 C 58.53 224.21 52.17 230.57 44.32 230.57 C 36.48 230.57 30.12 224.21 30.12 216.37 C 30.12 208.53 36.48 202.17 44.32 202.17 C 52.17 202.17 58.53 208.53 58.53 216.37 Z" fill="#fff6d6" fill-rule="nonzero" group-id="1,6,34" node-id="382" stroke="none" target-height="28.408005" target-width="28.407999" target-x="30.12" target-y="202.166"></path><path d="M 44.32 232.07 C 35.66 232.07 28.62 225.03 28.62 216.37 C 28.62 207.71 35.66 200.67 44.32 200.67 C 52.98 200.67 60.03 207.71 60.03 216.37 C 60.03 225.03 52.98 232.07 44.32 232.07 Z M 44.32 203.67 C 37.32 203.67 31.62 209.37 31.62 216.37 C 31.62 223.38 37.32 229.07 44.32 229.07 C 51.33 229.07 57.03 223.38 57.03 216.37 C 57.03 209.37 51.33 203.67 44.32 203.67 Z" fill="#ccccde" fill-rule="nonzero" group-id="1,6,34" node-id="384" stroke="none" target-height="31.408005" target-width="31.407999" target-x="28.62" target-y="200.666"></path></g></g><g node-id="556"><g node-id="584"><path d="M 250.38 85.81 C 250.38 96.83 241.45 105.77 230.42 105.77 C 219.39 105.77 210.45 96.83 210.45 85.81 C 210.45 74.78 219.39 65.84 230.42 65.84 C 241.45 65.84 250.38 74.78 250.38 85.81 Z" fill="#ffe2d6" fill-rule="nonzero" group-id="1,7,35" node-id="392" stroke="none" target-height="39.936005" target-width="39.93599" target-x="210.449" target-y="65.838"></path><path d="M 230.42 107.27 C 218.58 107.27 208.95 97.64 208.95 85.81 C 208.95 73.97 218.58 64.34 230.42 64.34 C 242.25 64.34 251.88 73.97 251.88 85.81 C 251.88 97.64 242.25 107.27 230.42 107.27 Z M 230.42 67.34 C 220.23 67.34 211.95 75.62 211.95 85.81 C 211.95 95.99 220.23 104.27 230.42 104.27 C 240.60 104.27 248.88 95.99 248.88 85.81 C 248.88 75.62 240.60 67.34 230.42 67.34 Z" fill="#ccccde" fill-rule="nonzero" group-id="1,7,35" node-id="394" stroke="none" target-height="42.936005" target-width="42.93599" target-x="208.949" target-y="64.338"></path></g><g node-id="585"><path d="M 244.75 85.68 C 244.75 93.52 238.39 99.88 230.55 99.88 C 222.70 99.88 216.34 93.52 216.34 85.68 C 216.34 77.83 222.70 71.47 230.55 71.47 C 238.39 71.47 244.75 77.83 244.75 85.68 Z" fill="#fff6d6" fill-rule="nonzero" group-id="1,7,36" node-id="399" stroke="none" target-height="28.407997" target-width="28.408005" target-x="216.342" target-y="71.473"></path><path d="M 230.55 101.38 C 221.89 101.38 214.84 94.34 214.84 85.68 C 214.84 77.02 221.89 69.97 230.55 69.97 C 239.21 69.97 246.25 77.02 246.25 85.68 C 246.25 94.34 239.21 101.38 230.55 101.38 Z M 230.55 72.97 C 223.54 72.97 217.84 78.67 217.84 85.68 C 217.84 92.68 223.54 98.38 230.55 98.38 C 237.55 98.38 243.25 92.68 243.25 85.68 C 243.25 78.67 237.55 72.97 230.55 72.97 Z" fill="#ccccde" fill-rule="nonzero" group-id="1,7,36" node-id="401" stroke="none" target-height="31.407997" target-width="31.408005" target-x="214.842" target-y="69.973"></path></g></g></g><g node-id="551"><g node-id="557"><g node-id="586"><path d="M 118.73 80.63 L 133.23 84.77 L 85.90 250.82 L 71.40 246.69 Z" fill="#ffd6a8" fill-rule="nonzero" group-id="2,8,37" node-id="411" stroke="none" target-height="170.19003" target-width="61.833908" target-x="71.39952" target-y="80.63342"></path></g><path d="M 85.90 252.33 C 85.76 252.33 85.62 252.31 85.49 252.27 L 70.98 248.13 C 70.19 247.91 69.72 247.08 69.95 246.28 L 117.28 80.22 C 117.51 79.43 118.34 78.96 119.13 79.19 L 133.64 83.33 C 134.02 83.44 134.35 83.69 134.54 84.04 C 134.73 84.39 134.78 84.80 134.67 85.18 L 87.34 251.24 C 87.23 251.62 86.98 251.94 86.63 252.14 C 86.40 252.26 86.15 252.33 85.90 252.33 Z M 73.25 245.66 L 84.87 248.97 L 131.38 85.80 L 119.75 82.49 L 73.25 245.66 Z" fill="#6e6e96" fill-rule="nonzero" group-id="2,8" node-id="414" stroke="none" target-height="173.362" target-width="65.055" target-x="69.725" target-y="78.964"></path></g><g node-id="558"><g node-id="587"><path d="M 177.56 246.68 L 163.05 250.82 L 115.73 84.76 L 130.23 80.63 Z" fill="#ffd6a8" fill-rule="nonzero" group-id="2,9,38" node-id="421" stroke="none" target-height="170.191" target-width="61.834152" target-x="115.72513" target-y="80.627655"></path></g><path d="M 163.05 252.32 C 162.80 252.32 162.55 252.26 162.32 252.13 C 161.98 251.94 161.72 251.61 161.61 251.23 L 114.28 85.17 C 114.05 84.38 114.52 83.55 115.31 83.32 L 129.82 79.19 C 130.20 79.08 130.61 79.12 130.96 79.32 C 131.31 79.51 131.56 79.83 131.67 80.22 L 179.00 246.27 C 179.23 247.07 178.77 247.90 177.97 248.13 L 163.46 252.26 C 163.33 252.30 163.19 252.32 163.05 252.32 Z M 117.58 85.79 L 164.08 248.97 L 175.71 245.65 L 129.20 82.48 L 117.58 85.79 Z" fill="#6e6e96" fill-rule="nonzero" group-id="2,9" node-id="424" stroke="none" target-height="173.24301" target-width="65.175" target-x="114.054" target-y="79.077"></path></g><g node-id="559"><path d="M 116.54 40.79 L 131.62 40.79 L 131.62 238.59 L 116.54 238.59 Z" fill="#ffd6a8" fill-rule="nonzero" group-id="2,10" node-id="429" stroke="none" target-height="197.79599" target-width="15.081001" target-x="116.536" target-y="40.79"></path><path d="M 131.62 240.09 L 116.54 240.09 C 115.71 240.09 115.04 239.41 115.04 238.59 L 115.04 40.79 C 115.04 39.96 115.71 39.29 116.54 39.29 L 131.62 39.29 C 132.44 39.29 133.12 39.96 133.12 40.79 L 133.12 238.59 C 133.12 239.41 132.44 240.09 131.62 240.09 Z M 118.04 237.09 L 130.12 237.09 L 130.12 42.29 L 118.04 42.29 L 118.04 237.09 Z" fill="#6e6e96" fill-rule="nonzero" group-id="2,10" node-id="431" stroke="none" target-height="200.79599" target-width="18.081001" target-x="115.036" target-y="39.29"></path></g><path d="M 206.40 137.25 C 206.40 182.83 169.45 219.78 123.87 219.78 C 78.29 219.78 41.34 182.83 41.34 137.25 C 41.34 91.68 78.29 54.73 123.87 54.73 C 169.45 54.73 206.40 91.68 206.40 137.25 Z" fill="#ff8aa2" fill-rule="nonzero" group-id="2" node-id="434" stroke="none" target-height="165.058" target-width="165.058" target-x="41.337" target-y="54.726"></path><path d="M 46.52 138.81 C 46.52 95.03 82.02 59.53 125.81 59.53 C 156.13 59.53 183.42 77.51 196.75 102.53 C 183.89 75.05 156.01 56.01 123.67 56.01 C 79.12 56.01 43.00 92.13 43.00 136.68 C 43.00 169.01 62.03 196.88 89.50 209.75 C 64.49 196.41 46.52 169.13 46.52 138.81 Z" fill="#ffabbb" fill-rule="nonzero" group-id="2" node-id="436" stroke="none" target-height="153.738" target-width="153.746" target-x="43.003" target-y="56.012"></path><path d="M 191.93 137.25 C 191.93 174.84 161.46 205.32 123.87 205.32 C 86.28 205.32 55.80 174.84 55.80 137.25 C 55.80 99.67 86.28 69.19 123.87 69.19 C 161.46 69.19 191.93 99.67 191.93 137.25 Z" fill="#f0f0ff" fill-rule="nonzero" group-id="2" node-id="438" stroke="none" target-height="136.122" target-width="136.12201" target-x="55.805" target-y="69.194"></path><path d="M 59.61 138.97 C 59.61 102.56 89.12 73.04 125.54 73.04 C 150.75 73.04 173.44 87.99 184.53 108.79 C 173.83 85.95 150.65 70.12 123.76 70.12 C 86.71 70.12 56.68 100.15 56.68 137.19 C 56.68 164.08 72.51 187.25 95.34 197.96 C 74.55 186.86 59.61 164.18 59.61 138.97 Z" fill="#ffffff" fill-rule="nonzero" group-id="2" node-id="440" stroke="none" target-height="127.838005" target-width="127.84599" target-x="56.681" target-y="70.117"></path><path d="M 175.19 137.25 C 175.19 165.60 152.21 188.58 123.87 188.58 C 95.52 188.58 72.55 165.60 72.55 137.25 C 72.55 108.91 95.52 85.93 123.87 85.93 C 152.21 85.93 175.19 108.91 175.19 137.25 Z" fill="#ff8aa2" fill-rule="nonzero" group-id="2" node-id="442" stroke="none" target-height="102.642006" target-width="102.642" target-x="72.545" target-y="85.934"></path><path d="M 125.50 187.17 C 98.98 187.17 77.47 165.66 77.47 139.14 C 77.47 112.61 98.98 91.11 125.50 91.11 C 152.03 91.11 173.54 112.61 173.54 139.14 C 173.54 151.39 168.94 162.56 161.39 171.05 C 169.80 161.91 174.94 149.72 174.94 136.32 C 174.94 107.97 151.96 85.00 123.62 85.00 C 95.27 85.00 72.29 107.97 72.29 136.32 C 72.29 164.66 95.27 187.64 123.62 187.64 C 129.91 187.64 135.94 186.50 141.52 184.42 C 136.51 186.19 131.12 187.17 125.50 187.17 Z" fill="#ffabbb" fill-rule="nonzero" group-id="2" node-id="444" stroke="none" target-height="102.642" target-width="102.642006" target-x="72.294" target-y="84.998"></path><path d="M 157.99 137.25 C 157.99 156.10 142.71 171.38 123.87 171.38 C 105.02 171.38 89.74 156.10 89.74 137.25 C 89.74 118.41 105.02 103.13 123.87 103.13 C 142.71 103.13 157.99 118.41 157.99 137.25 Z" fill="#f0f0ff" fill-rule="nonzero" group-id="2" node-id="446" stroke="none" target-height="68.25001" target-width="68.25" target-x="89.741" target-y="103.13"></path><path d="M 123.11 104.63 C 104.94 104.63 90.21 119.36 90.21 137.54 C 90.21 155.71 104.94 170.44 123.11 170.44 C 141.28 170.44 156.01 155.71 156.01 137.54 C 156.02 119.36 141.28 104.63 123.11 104.63 Z M 124.41 169.86 C 107.28 169.86 93.39 155.97 93.39 138.84 C 93.39 121.70 107.28 107.81 124.41 107.81 C 141.55 107.81 155.44 121.70 155.44 138.84 C 155.44 155.97 141.55 169.86 124.41 169.86 Z" fill="#ffffff" fill-rule="nonzero" group-id="2,11" node-id="450" stroke="none" target-height="65.80299" target-width="65.80701" target-x="90.211" target-y="104.634"></path><path d="M 136.39 137.25 C 136.39 144.17 130.78 149.78 123.87 149.78 C 116.95 149.78 111.35 144.17 111.35 137.25 C 111.35 130.34 116.95 124.73 123.87 124.73 C 130.78 124.73 136.39 130.34 136.39 137.25 Z" fill="#ff8aa2" fill-rule="nonzero" group-id="2" node-id="453" stroke="none" target-height="25.039993" target-width="25.04" target-x="111.346" target-y="124.735"></path><path d="M 123.87 221.28 C 77.53 221.28 39.84 183.59 39.84 137.25 C 39.84 90.92 77.53 53.23 123.87 53.23 C 170.20 53.23 207.89 90.92 207.89 137.25 C 207.90 183.59 170.20 221.28 123.87 221.28 Z M 123.87 56.23 C 79.19 56.23 42.84 92.58 42.84 137.25 C 42.84 181.94 79.19 218.28 123.87 218.28 C 168.54 218.28 204.89 181.93 204.89 137.25 C 204.90 92.58 168.54 56.23 123.87 56.23 Z" fill="#6e6e96" fill-rule="nonzero" group-id="2" node-id="455" stroke="none" target-height="168.058" target-width="168.058" target-x="39.837" target-y="53.226"></path><path d="M 123.87 206.82 C 85.51 206.82 54.30 175.61 54.30 137.25 C 54.30 98.90 85.51 67.69 123.87 67.69 C 162.22 67.69 193.43 98.90 193.43 137.25 C 193.43 175.61 162.22 206.82 123.87 206.82 Z M 123.87 70.69 C 87.16 70.69 57.30 100.55 57.30 137.25 C 57.30 173.96 87.16 203.82 123.87 203.82 C 160.57 203.82 190.43 173.96 190.43 137.25 C 190.43 100.55 160.57 70.69 123.87 70.69 Z" fill="#6e6e96" fill-rule="nonzero" group-id="2" node-id="457" stroke="none" target-height="139.12299" target-width="139.12201" target-x="54.305" target-y="67.693"></path><path d="M 123.87 190.08 C 94.74 190.08 71.05 166.38 71.05 137.25 C 71.05 108.13 94.74 84.43 123.87 84.43 C 152.99 84.43 176.69 108.13 176.69 137.25 C 176.69 166.38 152.99 190.08 123.87 190.08 Z M 123.87 87.43 C 96.39 87.43 74.05 109.78 74.05 137.25 C 74.05 164.73 96.39 187.08 123.87 187.08 C 151.34 187.08 173.69 164.73 173.69 137.25 C 173.69 109.78 151.34 87.43 123.87 87.43 Z" fill="#6e6e96" fill-rule="nonzero" group-id="2" node-id="459" stroke="none" target-height="105.642006" target-width="105.643005" target-x="71.045" target-y="84.434"></path><path d="M 123.87 172.88 C 104.22 172.88 88.24 156.90 88.24 137.25 C 88.24 117.61 104.22 101.63 123.87 101.63 C 143.51 101.63 159.49 117.61 159.49 137.25 C 159.49 156.90 143.51 172.88 123.87 172.88 Z M 123.87 104.63 C 105.88 104.63 91.24 119.27 91.24 137.25 C 91.24 155.24 105.88 169.88 123.87 169.88 C 141.85 169.88 156.49 155.24 156.49 137.25 C 156.49 119.27 141.85 104.63 123.87 104.63 Z" fill="#6e6e96" fill-rule="nonzero" group-id="2" node-id="461" stroke="none" target-height="71.25001" target-width="71.25" target-x="88.241" target-y="101.63"></path><path d="M 123.87 151.28 C 116.14 151.28 109.85 144.99 109.85 137.25 C 109.85 129.52 116.14 123.23 123.87 123.23 C 131.60 123.23 137.89 129.52 137.89 137.25 C 137.89 144.98 131.60 151.28 123.87 151.28 Z M 123.87 126.23 C 117.79 126.23 112.85 131.18 112.85 137.25 C 112.85 143.33 117.79 148.28 123.87 148.28 C 129.94 148.28 134.89 143.33 134.89 137.25 C 134.89 131.18 129.94 126.23 123.87 126.23 Z" fill="#6e6e96" fill-rule="nonzero" group-id="2" node-id="463" stroke="none" target-height="28.040993" target-width="28.04" target-x="109.846" target-y="123.234"></path><path d="M 123.87 53.78 C 115.59 53.78 107.60 55.01 100.06 57.27 C 106.96 55.32 114.23 54.26 121.75 54.26 C 165.63 54.26 201.21 89.83 201.21 133.72 C 201.21 177.61 165.63 213.19 121.75 213.19 C 77.86 213.19 42.28 177.61 42.28 133.72 C 42.28 120.64 45.46 108.31 51.06 97.42 C 44.86 109.01 41.34 122.25 41.34 136.31 C 41.34 181.89 78.29 218.84 123.86 218.84 C 169.44 218.84 206.39 181.89 206.39 136.31 C 206.40 90.73 169.44 53.78 123.87 53.78 Z" fill="#6e6e96" fill-opacity="0.2" fill-rule="nonzero" group-id="2,12" node-id="467" stroke="none" target-height="165.058" target-width="165.059" target-x="41.336" target-y="53.784"></path><path d="M 124.11 68.84 C 117.32 68.84 110.76 69.85 104.57 71.71 C 110.23 70.11 116.20 69.23 122.38 69.23 C 158.41 69.23 187.63 98.45 187.63 134.48 C 187.63 170.52 158.41 199.74 122.38 199.74 C 86.34 199.74 57.12 170.52 57.12 134.48 C 57.12 123.74 59.73 113.61 64.33 104.67 C 59.24 114.19 56.35 125.06 56.35 136.61 C 56.35 174.04 86.69 204.38 124.11 204.38 C 161.54 204.38 191.88 174.04 191.88 136.61 C 191.88 99.19 161.54 68.84 124.11 68.84 Z" fill="#6e6e96" fill-opacity="0.2" fill-rule="nonzero" group-id="2,13" node-id="472" stroke="none" target-height="135.534" target-width="135.534" target-x="56.348" target-y="68.845"></path><path d="M 126.28 83.52 C 121.11 83.25 116.07 83.76 111.28 84.94 C 115.66 83.94 120.24 83.50 124.94 83.75 C 152.39 85.16 173.50 108.55 172.09 136.00 C 170.68 163.45 147.28 184.56 119.83 183.15 C 92.39 181.74 71.28 158.34 72.69 130.89 C 73.11 122.71 75.50 115.10 79.35 108.47 C 75.10 115.52 72.47 123.69 72.02 132.48 C 70.55 160.99 92.47 185.29 120.98 186.75 C 149.48 188.22 173.78 166.30 175.24 137.79 C 176.71 109.28 154.79 84.99 126.28 83.52 Z" fill="#6e6e96" fill-opacity="0.2" fill-rule="nonzero" group-id="2,14" node-id="477" stroke="none" target-height="104.962" target-width="106.159004" target-x="70.551" target-y="83.255"></path><path d="M 124.04 102.83 C 123.76 102.83 123.49 102.84 123.21 102.85 C 140.25 103.29 153.93 117.22 153.93 134.37 C 153.93 151.78 139.81 165.90 122.39 165.90 C 104.97 165.90 90.85 151.78 90.85 134.37 C 90.85 129.89 91.79 125.63 93.47 121.78 C 91.20 126.35 89.91 131.50 89.91 136.96 C 89.91 155.80 105.19 171.08 124.04 171.08 C 142.88 171.08 158.16 155.80 158.16 136.96 C 158.16 118.11 142.89 102.83 124.04 102.83 Z" fill="#6e6e96" fill-opacity="0.2" fill-rule="nonzero" group-id="2,15" node-id="482" stroke="none" target-height="68.25199" target-width="68.25299" target-x="89.912" target-y="102.829"></path><path d="M 124.33 124.66 C 128.97 125.70 132.44 129.84 132.44 134.80 C 132.44 140.55 127.78 145.20 122.04 145.20 C 116.29 145.20 111.64 140.55 111.64 134.80 C 111.64 134.80 111.64 134.79 111.64 134.79 C 111.49 135.56 111.41 136.35 111.41 137.16 C 111.41 144.08 117.01 149.68 123.93 149.68 C 130.84 149.68 136.45 144.08 136.45 137.16 C 136.45 130.38 131.06 124.87 124.33 124.66 Z" fill="#6e6e96" fill-opacity="0.2" fill-rule="nonzero" group-id="2,16" node-id="487" stroke="none" target-height="25.020004" target-width="25.042007" target-x="111.407" target-y="124.662"></path><path d="M 114.18 139.75 C 114.18 133.54 119.21 128.51 125.42 128.51 C 129.05 128.51 132.27 130.24 134.33 132.91 C 132.59 128.95 128.64 126.19 124.03 126.19 C 117.83 126.19 112.80 131.22 112.80 137.43 C 112.80 140.00 113.67 142.37 115.13 144.26 C 114.52 142.88 114.18 141.35 114.18 139.75 Z" fill="#ffabbb" fill-rule="nonzero" group-id="2" node-id="490" stroke="none" target-height="18.074997" target-width="21.531998" target-x="112.795" target-y="126.185"></path><path d="M 80.39 215.14 L 89.70 219.75 L 80.83 249.38 L 85.91 250.83 L 96.77 216.45 L 82.17 208.92 Z" fill="#6e6e96" fill-opacity="0.15" fill-rule="nonzero" group-id="2,17" node-id="494" stroke="none" target-height="41.913986" target-width="16.377998" target-x="80.391" target-y="208.917"></path><path d="M 168.01 249.41 L 159.40 217.87 L 167.82 212.57 L 166.47 208.92 L 153.28 214.10 L 163.04 250.83 Z" fill="#6e6e96" fill-opacity="0.15" fill-rule="nonzero" group-id="2,18" node-id="499" stroke="none" target-height="41.913986" target-width="14.733002" target-x="153.281" target-y="208.917"></path><path d="M 116.55 219.75 L 131.62 219.75 L 131.62 225.40 L 116.55 225.40 Z" fill="#6e6e96" fill-opacity="0.15" fill-rule="nonzero" group-id="2,19" node-id="504" stroke="none" target-height="5.649002" target-width="15.069008" target-x="116.548" target-y="219.749"></path><path d="M 117.91 42.19 L 130.19 42.19 L 130.19 44.25 L 117.91 44.25 Z" fill="#ffffff" fill-opacity="0.43" fill-rule="nonzero" group-id="2,20" node-id="509" stroke="none" target-height="2.058998" target-width="12.278" target-x="117.907" target-y="42.187"></path><path d="M 194.60 209.82 C 194.21 209.82 193.83 209.67 193.53 209.38 L 123.02 138.86 C 122.44 138.28 122.44 137.33 123.02 136.74 C 123.61 136.16 124.56 136.16 125.14 136.74 L 195.66 207.26 C 196.24 207.84 196.24 208.79 195.66 209.38 C 195.36 209.67 194.98 209.82 194.60 209.82 Z" fill="#6e6e96" fill-rule="nonzero" group-id="2" node-id="512" stroke="none" target-height="73.659" target-width="73.80601" target-x="122.436" target-y="136.157"></path><path d="M 187.39 201.17 L 187.39 217.60 L 209.41 239.61 L 209.41 223.19 L 227.21 223.19 L 205.19 201.17 Z" fill="#7feaff" fill-rule="nonzero" group-id="2,21" node-id="516" stroke="none" target-height="38.44301" target-width="39.81299" target-x="187.393" target-y="201.17"></path><path d="M 209.41 241.11 C 209.02 241.11 208.64 240.96 208.35 240.67 L 186.33 218.66 C 186.05 218.38 185.89 218.00 185.89 217.60 L 185.89 201.17 C 185.89 200.34 186.56 199.67 187.39 199.67 L 205.19 199.67 C 205.59 199.67 205.97 199.83 206.25 200.11 L 228.27 222.12 C 228.70 222.55 228.82 223.20 228.59 223.76 C 228.36 224.32 227.81 224.69 227.21 224.69 L 210.91 224.69 L 210.91 239.61 C 210.91 240.22 210.54 240.77 209.98 241.00 C 209.80 241.08 209.60 241.11 209.41 241.11 Z M 188.89 216.98 L 207.91 235.99 L 207.91 223.19 C 207.91 222.36 208.58 221.69 209.41 221.69 L 223.59 221.69 L 204.57 202.67 L 188.89 202.67 L 188.89 216.98 Z" fill="#6e6e96" fill-rule="nonzero" group-id="2,21" node-id="518" stroke="none" target-height="41.44301" target-width="42.933" target-x="185.892" target-y="199.67"></path><path d="M 166.47 210.42 C 165.96 210.42 165.46 210.16 165.18 209.69 L 122.80 138.57 C 122.37 137.86 122.60 136.94 123.32 136.52 C 124.03 136.09 124.95 136.32 125.37 137.04 L 167.76 208.15 C 168.18 208.86 167.95 209.78 167.24 210.21 C 167.00 210.35 166.73 210.42 166.47 210.42 Z" fill="#6e6e96" fill-opacity="0.18" fill-rule="nonzero" group-id="2,22" node-id="523" stroke="none" target-height="74.32501" target-width="45.811005" target-x="122.371" target-y="136.092"></path><path d="M 142.92 240.09 L 104.30 240.09 C 103.47 240.09 102.80 239.41 102.80 238.59 C 102.80 237.76 103.47 237.09 104.30 237.09 L 142.92 237.09 C 143.75 237.09 144.42 237.76 144.42 238.59 C 144.42 239.41 143.75 240.09 142.92 240.09 Z" fill="#6e6e96" fill-opacity="0.2" fill-rule="nonzero" group-id="2,23" node-id="528" stroke="none" target-height="3" target-width="41.615997" target-x="102.804" target-y="237.086"></path><path d="M 198.49 252.80 L 50.62 252.80 C 49.79 252.80 49.12 252.13 49.12 251.30 C 49.12 250.47 49.79 249.80 50.62 249.80 L 198.49 249.80 C 199.32 249.80 199.99 250.47 199.99 251.30 C 199.99 252.13 199.32 252.80 198.49 252.80 Z" fill="#6e6e96" fill-opacity="0.2" fill-rule="nonzero" group-id="2,24" node-id="533" stroke="none" target-height="3" target-width="150.875" target-x="49.116" target-y="249.802"></path><path d="M 187.39 201.17 L 209.41 223.19 L 209.41 239.61 L 187.39 217.60 Z" fill="#6e6e96" fill-opacity="0.15" fill-rule="nonzero" group-id="2,25" node-id="538" stroke="none" target-height="38.44301" target-width="22.015991" target-x="187.393" target-y="201.17"></path><path d="M 223.92 252.80 L 210.74 252.80 C 209.91 252.80 209.24 252.13 209.24 251.30 C 209.24 250.47 209.91 249.80 210.74 249.80 L 223.92 249.80 C 224.75 249.80 225.42 250.47 225.42 251.30 C 225.42 252.13 224.75 252.80 223.92 252.80 Z" fill="#6e6e96" fill-opacity="0.2" fill-rule="nonzero" group-id="2,26" node-id="543" stroke="none" target-height="3" target-width="16.186005" target-x="209.236" target-y="249.802"></path><path d="M 40.26 252.80 L 32.72 252.80 C 31.89 252.80 31.22 252.13 31.22 251.30 C 31.22 250.47 31.89 249.80 32.72 249.80 L 40.26 249.80 C 41.08 249.80 41.76 250.47 41.76 251.30 C 41.76 252.13 41.08 252.80 40.26 252.80 Z" fill="#6e6e96" fill-opacity="0.2" fill-rule="nonzero" group-id="2,27" node-id="548" stroke="none" target-height="3" target-width="10.535002" target-x="31.22" target-y="249.802"></path></g></svg>