<?xml version="1.0" standalone="no"?><!DOCTYPE svg PUBLIC "-//W3C//DTD SVG 1.1//EN" "http://www.w3.org/Graphics/SVG/1.1/DTD/svg11.dtd"><svg t="1732348642283" class="icon" viewBox="0 0 1137 1024" version="1.1" xmlns="http://www.w3.org/2000/svg" p-id="6643" xmlns:xlink="http://www.w3.org/1999/xlink" width="222.0703125" height="200"><path d="M938.666667 843.662222H595.626667v125.155556h244.337777v1.991111a25.144889 25.144889 0 0 1 9.386667-1.991111 27.619556 27.619556 0 0 1 0 55.182222 25.144889 25.144889 0 0 1-9.386667-1.991111V1024H297.813333v-1.991111a25.144889 25.144889 0 0 1-9.386666 1.991111 27.619556 27.619556 0 0 1 0-55.182222 25.144889 25.144889 0 0 1 9.386666 1.991111v-1.991111h244.337778v-125.155556H199.111111a199.111111 199.111111 0 0 1-199.111111-199.111111V199.111111a199.111111 199.111111 0 0 1 199.111111-199.111111h739.555556a199.111111 199.111111 0 0 1 199.111111 199.111111v445.44a199.111111 199.111111 0 0 1-199.111111 199.111111z m145.635555-646.257778a142.222222 142.222222 0 0 0-142.222222-142.222222H195.413333a142.222222 142.222222 0 0 0-142.222222 142.222222v451.413334a142.222222 142.222222 0 0 0 142.222222 142.222222h746.666667a142.222222 142.222222 0 0 0 142.222222-142.222222V197.404444z" fill="#59b2f9" p-id="6644"></path></svg>