<?xml version="1.0" standalone="no"?><!DOCTYPE svg PUBLIC "-//W3C//DTD SVG 1.1//EN" "http://www.w3.org/Graphics/SVG/1.1/DTD/svg11.dtd"><svg height="251" node-id="1" sillyvg="true" template-height="251" template-width="256" version="1.1" viewBox="0 0 256 251" width="256" xmlns="http://www.w3.org/2000/svg" xmlns:xlink="http://www.w3.org/1999/xlink"><defs node-id="207"></defs><g node-id="393"><path d="M 252.90 115.05 C 252.90 72.37 219.80 37.78 178.98 37.78 C 178.35 37.78 177.72 37.81 177.09 37.83 C 164.20 15.18 140.57 0.00 113.54 0.00 C 72.72 0.00 39.63 34.60 39.63 77.28 C 39.63 77.83 39.66 78.38 39.67 78.93 C 17.34 92.23 2.28 117.32 2.28 146.10 C 2.28 188.78 35.37 223.37 76.19 223.37 C 78.51 223.37 80.81 223.25 83.08 223.03 C 96.64 228.00 118.14 251.15 141.10 251.15 C 178.84 251.15 208.94 221.58 213.43 183.41 C 236.90 170.47 252.90 144.72 252.90 115.05 Z" fill="#e6e3f7" fill-rule="nonzero" group-id="1" node-id="210" stroke="none" target-height="251.147" target-width="250.619" target-x="2.277" target-y="0"></path><path d="M 214.22 57.65 L 200.22 57.65 C 199.40 57.65 198.72 56.98 198.72 56.15 C 198.72 55.32 199.40 54.65 200.22 54.65 L 214.22 54.65 C 215.05 54.65 215.72 55.32 215.72 56.15 C 215.72 56.98 215.05 57.65 214.22 57.65 Z" fill="#ffffff" fill-rule="nonzero" group-id="1" node-id="212" stroke="none" target-height="3" target-width="17" target-x="198.725" target-y="54.646"></path><path d="M 228.22 57.65 L 224.22 57.65 C 223.40 57.65 222.72 56.98 222.72 56.15 C 222.72 55.32 223.40 54.65 224.22 54.65 L 228.22 54.65 C 229.05 54.65 229.72 55.32 229.72 56.15 C 229.72 56.98 229.05 57.65 228.22 57.65 Z" fill="#ffffff" fill-rule="nonzero" group-id="1" node-id="214" stroke="none" target-height="3" target-width="7" target-x="222.725" target-y="54.646"></path><path d="M 238.26 66.65 L 220.22 66.65 C 219.40 66.65 218.72 65.97 218.72 65.15 C 218.72 64.32 219.40 63.65 220.22 63.65 L 238.26 63.65 C 239.09 63.65 239.76 64.32 239.76 65.15 C 239.76 65.97 239.09 66.65 238.26 66.65 Z" fill="#ffffff" fill-rule="nonzero" group-id="1" node-id="216" stroke="none" target-height="3.0000038" target-width="21.034988" target-x="218.725" target-y="63.646"></path><path d="M 209.22 66.65 L 204.22 66.65 C 203.40 66.65 202.72 65.97 202.72 65.15 C 202.72 64.32 203.40 63.65 204.22 63.65 L 209.22 63.65 C 210.05 63.65 210.72 64.32 210.72 65.15 C 210.72 65.97 210.05 66.65 209.22 66.65 Z" fill="#ffffff" fill-rule="nonzero" group-id="1" node-id="218" stroke="none" target-height="3.0000038" target-width="8" target-x="202.725" target-y="63.646"></path><path d="M 32.23 134.15 L 23.23 134.15 C 22.40 134.15 21.73 133.47 21.73 132.65 C 21.73 131.82 22.40 131.15 23.23 131.15 L 32.23 131.15 C 33.05 131.15 33.73 131.82 33.73 132.65 C 33.73 133.47 33.05 134.15 32.23 134.15 Z" fill="#ffffff" fill-rule="nonzero" group-id="1" node-id="220" stroke="none" target-height="3" target-width="11.999998" target-x="21.725" target-y="131.146"></path><path d="M 17.73 134.15 L 12.22 134.15 C 11.40 134.15 10.72 133.47 10.72 132.65 C 10.72 131.82 11.40 131.15 12.22 131.15 L 17.73 131.15 C 18.55 131.15 19.23 131.82 19.23 132.65 C 19.23 133.47 18.55 134.15 17.73 134.15 Z" fill="#ffffff" fill-rule="nonzero" group-id="1" node-id="222" stroke="none" target-height="3" target-width="8.5" target-x="10.725" target-y="131.146"></path><path d="M 24.98 126.90 L 9.47 126.90 C 8.65 126.90 7.97 126.22 7.97 125.40 C 7.97 124.57 8.65 123.90 9.47 123.90 L 24.98 123.90 C 25.80 123.90 26.48 124.57 26.48 125.40 C 26.48 126.22 25.80 126.90 24.98 126.90 Z" fill="#ffffff" fill-rule="nonzero" group-id="1" node-id="224" stroke="none" target-height="3" target-width="18.5" target-x="7.975" target-y="123.896"></path><path d="M 36.73 126.90 L 32.23 126.90 C 31.40 126.90 30.73 126.22 30.73 125.40 C 30.73 124.57 31.40 123.90 32.23 123.90 L 36.73 123.90 C 37.55 123.90 38.23 124.57 38.23 125.40 C 38.23 126.22 37.55 126.90 36.73 126.90 Z" fill="#ffffff" fill-rule="nonzero" group-id="1" node-id="226" stroke="none" target-height="3" target-width="7.499998" target-x="30.725" target-y="123.896"></path></g><g node-id="394"><path d="M 27.00 56.00 C 27.68 53.92 29.80 51.37 31.73 50.33 L 31.73 50.32 C 33.66 49.28 33.66 47.58 31.73 46.54 L 31.73 46.53 C 29.80 45.49 27.57 43.14 26.76 41.32 C 25.95 39.49 24.63 39.49 23.82 41.32 C 23.01 43.14 20.77 45.49 18.86 46.53 L 18.84 46.54 C 16.93 47.58 16.93 49.28 18.84 50.32 L 18.86 50.33 C 20.77 51.37 22.91 53.92 23.58 56.00 L 24.06 57.47 C 24.74 59.55 25.85 59.55 26.52 57.47 L 27.00 56.00 Z" fill="#ffb0b8" fill-rule="nonzero" group-id="2" node-id="231" stroke="none" target-height="20.058998" target-width="16.732002" target-x="16.925" target-y="39.49"></path></g><g node-id="395"><path d="M 13.23 191.22 C 13.85 189.33 15.78 187.01 17.53 186.07 L 17.54 186.06 C 19.28 185.12 19.28 183.57 17.54 182.63 L 17.53 182.62 C 15.78 181.68 13.76 179.54 13.02 177.89 C 12.29 176.23 11.08 176.23 10.35 177.89 C 9.62 179.54 7.58 181.68 5.84 182.62 L 5.83 182.63 C 4.09 183.57 4.09 185.12 5.83 186.06 L 5.84 186.07 C 7.58 187.01 9.52 189.34 10.13 191.22 L 10.57 192.55 C 11.18 194.44 12.19 194.44 12.80 192.55 L 13.23 191.22 Z" fill="#7fdcff" fill-rule="nonzero" group-id="3" node-id="236" stroke="none" target-height="18.213013" target-width="15.192999" target-x="4.086" target-y="176.232"></path></g><g node-id="396"><path d="M 226.62 211.89 C 227.26 209.95 229.25 207.55 231.05 206.58 L 231.06 206.57 C 232.86 205.60 232.86 204.00 231.06 203.03 L 231.05 203.02 C 229.25 202.04 227.16 199.85 226.40 198.13 C 225.64 196.43 224.40 196.43 223.64 198.13 C 222.89 199.85 220.79 202.04 219.00 203.02 L 218.98 203.03 C 217.18 204.00 217.18 205.60 218.98 206.57 L 219.00 206.58 C 220.80 207.56 222.79 209.95 223.42 211.89 L 223.88 213.27 C 224.51 215.22 225.55 215.22 226.18 213.27 L 226.62 211.89 Z" fill="#dec2ff" fill-rule="nonzero" group-id="4" node-id="240" stroke="none" target-height="18.791" target-width="15.681" target-x="217.181" target-y="196.425"></path></g><g node-id="397"><path d="M 203.98 113.43 C 204.65 111.37 206.75 108.85 208.65 107.83 L 208.66 107.82 C 210.56 106.79 210.56 105.10 208.66 104.08 L 208.65 104.07 C 206.75 103.04 204.55 100.73 203.75 98.92 C 202.95 97.12 201.64 97.12 200.85 98.92 C 200.04 100.73 197.84 103.04 195.94 104.07 L 195.93 104.08 C 194.04 105.10 194.04 106.79 195.93 107.82 L 195.94 107.83 C 197.84 108.85 199.94 111.38 200.61 113.43 L 201.09 114.88 C 201.76 116.94 202.85 116.94 203.52 114.88 L 203.98 113.43 Z" fill="#ffb0b8" fill-rule="nonzero" group-id="5" node-id="245" stroke="none" target-height="19.819" target-width="16.520004" target-x="194.036" target-y="97.117"></path></g><g node-id="398"><path d="M 157.47 233.50 C 157.94 232.07 159.40 230.32 160.72 229.61 L 160.73 229.60 C 162.05 228.89 162.05 227.71 160.73 227.00 L 160.72 227.00 C 159.40 226.28 157.87 224.67 157.31 223.41 C 156.76 222.16 155.85 222.16 155.29 223.41 C 154.73 224.67 153.20 226.28 151.88 227.00 L 151.88 227.00 C 150.56 227.72 150.56 228.89 151.88 229.60 L 151.88 229.61 C 153.20 230.32 154.66 232.08 155.13 233.50 L 155.46 234.52 C 155.93 235.95 156.69 235.95 157.15 234.52 L 157.47 233.50 Z" fill="#ffb0b8" fill-rule="nonzero" group-id="6" node-id="250" stroke="none" target-height="13.787003" target-width="11.492996" target-x="150.556" target-y="222.159"></path></g><g node-id="399"><g node-id="401"><path d="M 136.17 210.60 C 136.11 210.60 136.05 210.59 135.98 210.59 C 135.16 210.48 134.58 209.73 134.68 208.91 C 134.88 207.34 135.20 205.45 135.57 203.27 C 137.72 190.43 141.73 166.53 132.49 139.92 C 132.48 139.88 132.47 139.85 132.46 139.81 C 127.28 120.47 126.14 105.79 129.09 96.18 C 131.40 88.64 135.43 87.04 135.88 86.88 C 136.66 86.61 137.51 87.03 137.79 87.81 C 138.06 88.58 137.65 89.43 136.89 89.71 C 136.64 89.81 123.75 95.65 135.34 138.99 C 144.81 166.31 140.72 190.67 138.53 203.77 C 138.17 205.92 137.85 207.77 137.66 209.29 C 137.56 210.04 136.92 210.60 136.17 210.60 Z" fill="#6e6e96" fill-rule="nonzero" group-id="7,9" node-id="257" stroke="none" target-height="123.989" target-width="21.055008" target-x="123.754" target-y="86.608"></path><path d="M 128.00 52.84 C 125.88 45.08 129.26 34.21 147.89 38.66 C 157.28 40.91 166.41 56.16 159.84 60.97" fill="#addcff" fill-rule="nonzero" group-id="7,9" node-id="259" stroke="none" target-height="26.765999" target-width="40.536995" target-x="125.878" target-y="34.206"></path><path d="M 160.06 57.72 C 159.54 57.72 159.03 57.44 158.75 56.95 C 158.35 56.23 158.61 55.31 159.33 54.91 C 159.99 54.53 160.85 53.83 160.58 52.03 C 159.95 47.77 153.49 41.11 147.12 39.71 C 138.77 37.86 132.77 38.46 130.24 41.40 C 128.80 43.07 128.53 45.63 129.52 48.23 C 129.81 49.01 129.43 49.88 128.65 50.17 C 127.88 50.47 127.01 50.08 126.72 49.30 C 125.32 45.65 125.79 41.96 127.97 39.44 C 130.29 36.74 135.62 34.10 147.76 36.78 C 154.99 38.37 162.66 45.57 163.55 51.59 C 163.94 54.21 162.96 56.31 160.79 57.52 C 160.56 57.66 160.31 57.72 160.06 57.72 Z" fill="#6e6e96" fill-rule="nonzero" group-id="7,9" node-id="261" stroke="none" target-height="23.619" target-width="38.614006" target-x="125.322" target-y="34.098"></path><path d="M 149.33 56.56 C 152.55 55.13 156.01 54.25 158.75 54.00 C 175.05 52.48 180.66 65.92 176.77 77.02 C 173.90 85.18 163.09 90.75 154.95 87.58" fill="#addcff" fill-rule="nonzero" group-id="7,9" node-id="263" stroke="none" target-height="38.27" target-width="31.335999" target-x="149.329" target-y="52.479"></path><g node-id="406"><path d="M 155.04 66.81 C 155.04 66.81 164.36 74.63 164.65 79.92 C 164.65 79.92 183.78 68.12 168.10 57.58 C 168.10 57.58 177.19 60.95 175.18 73.98 C 173.16 87.01 162.03 85.96 162.03 85.96 C 162.03 85.96 156.48 76.08 152.96 71.26 L 155.04 66.81 Z" fill="#74b7e8" fill-opacity="0.5" fill-rule="nonzero" group-id="7,9,14" node-id="267" stroke="none" target-height="29.435001" target-width="30.818008" target-x="152.958" target-y="57.578"></path></g><path d="M 159.48 89.59 C 157.55 89.59 155.68 89.26 153.97 88.60 C 153.19 88.30 152.81 87.43 153.11 86.66 C 153.41 85.88 154.28 85.50 155.05 85.80 C 158.34 87.08 162.43 86.80 166.27 85.04 C 170.39 83.14 173.62 79.82 174.91 76.14 C 176.91 70.45 176.16 64.37 172.96 60.27 C 169.85 56.29 164.84 54.51 158.44 55.11 C 155.70 55.36 152.35 56.27 149.50 57.55 C 148.74 57.89 147.85 57.55 147.52 56.79 C 147.18 56.03 147.52 55.15 148.28 54.81 C 151.46 53.39 155.07 52.41 158.16 52.12 C 165.52 51.43 171.61 53.67 175.32 58.42 C 179.15 63.32 180.07 70.49 177.74 77.13 C 176.19 81.56 172.37 85.54 167.52 87.77 C 164.88 88.98 162.12 89.59 159.48 89.59 Z" fill="#6e6e96" fill-rule="nonzero" group-id="7,9" node-id="270" stroke="none" target-height="38.162003" target-width="32.892014" target-x="147.18" target-y="51.43"></path><path d="M 110.67 82.15 C 100.82 77.98 92.16 66.21 99.07 56.69 C 103.23 50.96 114.28 40.42 125.51 46.02 C 128.60 47.55 131.30 51.95 132.58 57.25" fill="#addcff" fill-rule="nonzero" group-id="7,9" node-id="272" stroke="none" target-height="41.723003" target-width="40.412003" target-x="92.164" target-y="40.425"></path><path d="M 149.52 71.14 C 156.15 77.42 160.38 85.50 160.32 89.99 C 160.13 102.93 142.01 106.20 129.31 102.64 C 116.61 99.08 107.18 93.10 110.67 80.64 C 111.86 76.40 120.20 69.85 128.05 66.37" fill="#addcff" fill-rule="nonzero" group-id="7,9" node-id="274" stroke="none" target-height="39.826996" target-width="53.202003" target-x="107.182" target-y="66.369"></path><path d="M 160.28 88.99 C 160.34 84.50 156.11 76.42 149.48 70.14 L 128.01 65.37 C 120.16 68.86 111.82 75.40 110.63 79.64 C 107.14 92.09 116.56 98.08 129.27 101.64 C 141.97 105.20 160.09 101.93 160.28 88.99 Z M 132.04 93.40 C 123.18 90.91 117.17 87.52 119.61 78.83 C 120.02 77.36 121.99 75.94 124.54 74.59 C 127.94 77.42 136.81 83.16 149.56 79.56 C 151.51 81.64 152.86 83.56 152.83 85.20 C 152.70 94.22 140.91 95.89 132.04 93.40 Z" fill="#74b7e8" fill-opacity="0.5" fill-rule="nonzero" group-id="7,9,15" node-id="278" stroke="none" target-height="39.836006" target-width="53.203995" target-x="107.136" target-y="65.366"></path><path d="M 110.58 49.28 C 110.58 49.28 96.60 58.49 106.99 68.44 C 106.99 68.44 113.04 62.01 124.47 62.39 L 124.84 65.29 C 124.84 65.29 113.12 73.07 108.94 78.63 C 108.94 78.64 84.36 64.86 110.58 49.28 Z" fill="#74b7e8" fill-opacity="0.5" fill-rule="nonzero" group-id="7,9,16" node-id="283" stroke="none" target-height="29.359001" target-width="40.475" target-x="84.365" target-y="49.276"></path><path d="M 110.22 83.26 C 110.03 83.26 109.83 83.22 109.64 83.14 C 102.75 80.23 96.95 74.08 95.21 67.83 C 93.98 63.40 94.73 59.11 97.41 55.43 C 102.40 48.54 113.99 38.45 125.73 44.29 C 129.18 46.01 132.19 50.69 133.59 56.52 C 133.78 57.32 133.28 58.13 132.48 58.33 C 131.67 58.52 130.86 58.02 130.67 57.22 C 129.49 52.30 127.03 48.29 124.40 46.98 C 111.93 40.77 100.32 56.51 99.83 57.19 C 97.69 60.14 97.11 63.45 98.10 67.03 C 99.61 72.44 104.72 77.80 110.81 80.38 C 111.57 80.70 111.93 81.58 111.60 82.34 C 111.36 82.92 110.81 83.26 110.22 83.26 Z" fill="#6e6e96" fill-rule="nonzero" group-id="7,9" node-id="286" stroke="none" target-height="44.814003" target-width="39.80201" target-x="93.977" target-y="38.446"></path><path d="M 139.03 105.09 C 135.25 105.09 131.56 104.57 128.46 103.70 C 104.01 96.84 107.60 84.06 108.78 79.85 C 110.19 74.81 119.33 68.01 126.99 64.61 C 127.75 64.28 128.63 64.62 128.97 65.38 C 129.31 66.13 128.96 67.02 128.21 67.36 C 120.55 70.75 112.66 77.10 111.67 80.66 C 108.93 90.42 114.36 96.63 129.27 100.81 C 138.09 103.28 148.47 102.11 153.95 98.02 C 156.83 95.87 158.32 93.03 158.37 89.59 C 158.38 88.77 159.05 88.11 159.87 88.11 C 159.88 88.11 159.88 88.11 159.89 88.11 C 160.72 88.12 161.38 88.80 161.37 89.63 C 161.31 93.99 159.36 97.72 155.75 100.42 C 151.26 103.77 145.03 105.09 139.03 105.09 Z" fill="#6e6e96" fill-rule="nonzero" group-id="7,9" node-id="288" stroke="none" target-height="40.816" target-width="57.368004" target-x="104.012" target-y="64.276"></path><path d="M 156.00 80.69 C 155.50 80.69 155.01 80.44 154.72 79.99 C 152.90 77.08 150.59 74.26 148.04 71.84 C 147.44 71.27 147.41 70.32 147.99 69.72 C 148.56 69.11 149.51 69.09 150.11 69.66 C 152.84 72.25 155.31 75.28 157.26 78.40 C 157.70 79.10 157.49 80.03 156.79 80.46 C 156.54 80.62 156.27 80.69 156.00 80.69 Z" fill="#6e6e96" fill-rule="nonzero" group-id="7,9" node-id="290" stroke="none" target-height="11.601997" target-width="10.289001" target-x="147.415" target-y="69.091"></path><path d="M 142.83 51.23 C 149.91 52.95 154.35 59.68 152.76 66.25 C 151.15 72.82 144.63 74.64 137.56 72.92 C 130.48 71.20 125.52 66.58 127.12 60.01 C 128.72 53.44 135.75 49.51 142.83 51.23 Z" fill="#ffffff" fill-rule="nonzero" group-id="7,9,17" node-id="294" stroke="none" target-height="25.135998" target-width="28.831993" target-x="125.521" target-y="49.507"></path><path d="M 142.37 75.03 C 140.72 75.03 138.98 74.81 137.20 74.38 C 133.24 73.42 130.04 71.65 127.96 69.28 C 125.58 66.57 124.79 63.25 125.66 59.66 C 127.14 53.57 132.83 49.32 139.49 49.32 C 140.72 49.32 141.97 49.47 143.19 49.77 C 151.06 51.69 156.00 59.24 154.21 66.60 C 152.91 71.96 148.59 75.03 142.37 75.03 Z M 139.49 52.32 C 134.22 52.32 129.73 55.63 128.58 60.37 C 127.94 63.00 128.49 65.33 130.21 67.30 C 131.87 69.18 134.60 70.66 137.91 71.46 C 139.46 71.84 140.96 72.03 142.37 72.03 C 145.15 72.03 150.00 71.23 151.30 65.89 C 152.70 60.13 148.74 54.21 142.48 52.68 C 141.49 52.44 140.49 52.32 139.49 52.32 Z" fill="#6e6e96" fill-rule="nonzero" group-id="7,9,17" node-id="296" stroke="none" target-height="25.71" target-width="31.215004" target-x="124.788" target-y="49.322"></path><path d="M 132.21 55.91 C 132.21 55.91 129.02 63.50 137.22 65.76 C 145.42 68.02 150.75 60.66 147.84 56.68 C 147.84 56.68 154.29 61.46 149.57 67.87 C 144.85 74.29 129.77 73.29 128.84 64.26 C 127.91 55.24 132.21 55.91 132.21 55.91 Z" fill="#6e6e96" fill-opacity="0.15" fill-rule="nonzero" group-id="7,9,18" node-id="301" stroke="none" target-height="19.045002" target-width="26.37999" target-x="127.91" target-y="55.241"></path></g><g node-id="402"><g node-id="411"><path d="M 139.86 155.18 C 172.68 161.28 184.08 127.15 184.08 127.15 C 140.66 120.18 140.10 154.65 140.10 154.65" fill="#aed98e" fill-rule="nonzero" group-id="7,10,19" node-id="309" stroke="none" target-height="41.106003" target-width="44.214996" target-x="139.863" target-y="120.177"></path><path d="M 147.47 157.41 C 144.99 157.41 142.36 157.18 139.59 156.66 C 138.77 156.51 138.24 155.72 138.39 154.91 C 138.43 154.71 138.50 154.52 138.61 154.36 C 138.70 152.36 139.63 140.41 149.40 132.22 C 157.48 125.45 169.22 123.25 184.32 125.67 C 184.75 125.74 185.13 126.00 185.36 126.38 C 185.59 126.75 185.64 127.21 185.50 127.63 C 185.39 127.95 175.20 157.41 147.47 157.41 Z M 141.65 153.96 C 167.59 157.84 179.25 134.87 182.00 128.36 C 168.70 126.53 158.38 128.61 151.32 134.53 C 143.23 141.31 141.87 151.24 141.65 153.96 Z" fill="#6e6e96" fill-rule="nonzero" group-id="7,10,19" node-id="311" stroke="none" target-height="34.595" target-width="47.404007" target-x="138.236" target-y="123.246"></path></g><path d="M 152.00 135.10 C 152.00 135.10 143.73 148.22 148.94 149.97 C 154.13 151.70 180.83 128.75 180.83 128.75 C 180.83 128.75 174.10 157.72 142.66 154.41 C 142.66 154.41 142.30 141.61 152.00 135.10 Z" fill="#a1c983" fill-rule="nonzero" group-id="7,10" node-id="314" stroke="none" target-height="28.964996" target-width="38.526993" target-x="142.3" target-y="128.752"></path><path d="M 168.82 134.88 C 168.82 134.88 151.69 139.34 139.86 155.19" fill="#aed98e" fill-rule="nonzero" group-id="7,10,20" node-id="318" stroke="none" target-height="20.300003" target-width="28.964005" target-x="139.859" target-y="134.885"></path><path d="M 139.86 156.68 C 139.55 156.68 139.23 156.59 138.96 156.39 C 138.30 155.89 138.16 154.95 138.66 154.29 C 150.66 138.20 167.73 133.62 168.45 133.43 C 169.24 133.23 170.06 133.70 170.28 134.50 C 170.48 135.31 170.00 136.13 169.20 136.34 C 169.04 136.38 152.42 140.87 141.06 156.08 C 140.77 156.48 140.32 156.68 139.86 156.68 Z" fill="#6e6e96" fill-rule="nonzero" group-id="7,10,20" node-id="320" stroke="none" target-height="23.457" target-width="32.321" target-x="138.163" target-y="133.227"></path></g><g node-id="403"><g node-id="413"><path d="M 130.56 127.09 C 130.56 127.09 129.86 84.10 75.72 92.80 C 75.72 92.80 89.94 135.36 130.86 127.76" fill="#aed98e" fill-rule="nonzero" group-id="7,11,21" node-id="328" stroke="none" target-height="51.25901" target-width="55.13801" target-x="75.725" target-y="84.104"></path><path d="M 121.38 130.16 C 87.05 130.17 74.44 93.68 74.30 93.28 C 74.16 92.86 74.21 92.40 74.44 92.02 C 74.67 91.65 75.05 91.39 75.49 91.32 C 94.19 88.31 108.75 91.04 118.74 99.41 C 131.00 109.69 131.98 124.78 132.06 126.85 C 132.19 127.03 132.29 127.25 132.34 127.48 C 132.49 128.30 131.95 129.08 131.14 129.23 C 127.71 129.87 124.46 130.16 121.38 130.16 Z M 77.79 94.00 C 79.15 97.34 82.74 105.09 89.13 112.20 C 99.90 124.20 113.32 129.02 129.03 126.55 C 128.83 123.67 127.34 110.52 116.78 101.69 C 107.81 94.18 94.69 91.60 77.79 94.00 Z" fill="#6e6e96" fill-rule="nonzero" group-id="7,11,21" node-id="330" stroke="none" target-height="41.850998" target-width="58.325005" target-x="74.163" target-y="88.315"></path></g><path d="M 127.38 126.80 C 88.17 130.92 79.77 94.80 79.77 94.80 C 79.77 94.80 113.06 123.42 119.54 121.25 C 126.03 119.08 115.73 102.71 115.73 102.71 C 127.82 110.83 127.38 126.80 127.38 126.80 Z" fill="#a1c983" fill-rule="nonzero" group-id="7,11" node-id="333" stroke="none" target-height="36.121002" target-width="48.049995" target-x="79.772" target-y="94.797"></path><path d="M 130.87 127.76 C 116.11 108.00 94.75 102.44 94.75 102.44" fill="#aed98e" fill-rule="nonzero" group-id="7,11,22" node-id="337" stroke="none" target-height="25.313004" target-width="36.116005" target-x="94.749" target-y="102.445"></path><path d="M 130.87 129.26 C 130.41 129.26 129.96 129.05 129.66 128.66 C 115.39 109.54 94.58 103.95 94.37 103.90 C 93.57 103.69 93.09 102.87 93.30 102.07 C 93.50 101.27 94.33 100.78 95.12 100.99 C 96.02 101.22 117.17 106.91 132.07 126.86 C 132.56 127.53 132.43 128.47 131.76 128.96 C 131.49 129.16 131.18 129.26 130.87 129.26 Z" fill="#6e6e96" fill-rule="nonzero" group-id="7,11,22" node-id="339" stroke="none" target-height="28.474998" target-width="39.474007" target-x="93.087" target-y="100.783"></path></g></g><g node-id="400"><g node-id="404"><g node-id="415"><path d="M 51.94 143.12 L 80.27 143.12 C 87.42 143.12 93.27 148.97 93.27 156.12 L 93.27 207.47 C 93.27 214.62 87.42 220.47 80.27 220.47 L 51.94 220.47" fill="#ffffff" fill-rule="nonzero" group-id="8,12,23" node-id="350" stroke="none" target-height="77.356" target-width="41.333996" target-x="51.936" target-y="143.118"></path><path d="M 80.27 221.97 L 51.94 221.97 L 51.94 218.97 L 80.27 218.97 C 86.61 218.97 91.77 213.81 91.77 207.47 L 91.77 156.12 C 91.77 149.78 86.61 144.62 80.27 144.62 L 51.94 144.62 L 51.94 141.62 L 80.27 141.62 C 88.27 141.62 94.77 148.12 94.77 156.12 L 94.77 207.47 C 94.77 215.47 88.27 221.97 80.27 221.97 Z" fill="#6e6e96" fill-rule="nonzero" group-id="8,12,23" node-id="352" stroke="none" target-height="80.356" target-width="42.833996" target-x="51.936" target-y="141.618"></path></g><path d="M 148.52 181.97 L 202.80 171.50 C 202.80 171.50 209.47 171.88 209.47 178.18 C 209.47 184.47 202.04 187.91 202.04 187.91 L 146.85 214.04 C 146.85 214.04 129.54 221.61 116.17 217.77 C 108.77 215.26 96.68 212.24 92.49 212.24 L 92.49 151.79 C 92.49 151.79 136.39 151.79 147.45 178.10 C 147.45 178.10 150.88 184.97 145.92 189.92 C 140.97 194.88 133.53 187.44 133.53 187.44 C 133.53 187.44 126.23 180.53 118.08 176.96" fill="#ffdfd1" fill-rule="nonzero" group-id="8,12" node-id="355" stroke="none" target-height="69.81999" target-width="116.988" target-x="92.486" target-y="151.789"></path><path d="M 92.49 158.88 C 92.49 158.88 133.47 154.24 146.15 182.27 C 146.15 182.27 150.88 157.70 92.49 151.79 L 92.49 158.88 Z" fill="#ffffff" fill-opacity="0.43" fill-rule="nonzero" group-id="8,12,24" node-id="359" stroke="none" target-height="30.483994" target-width="58.392998" target-x="92.49" target-y="151.789"></path><path d="M 151.46 187.12 L 202.78 176.10 C 202.78 176.10 208.82 175.31 207.06 180.38 C 207.06 180.38 213.21 172.09 202.80 172.80 C 192.38 173.51 151.46 181.48 151.46 181.48 L 151.46 187.12 L 151.46 187.12 Z" fill="#ffffff" fill-opacity="0.43" fill-rule="nonzero" group-id="8,12,25" node-id="364" stroke="none" target-height="15.02301" target-width="61.755005" target-x="151.456" target-y="172.094"></path><path d="M 124.79 220.53 C 121.69 220.53 118.59 220.15 115.70 219.19 C 108.39 216.72 96.41 213.74 92.49 213.74 C 92.09 213.74 91.71 213.58 91.42 213.30 C 91.14 213.02 90.99 212.63 90.99 212.24 L 90.99 151.79 C 90.99 150.96 91.66 150.29 92.49 150.29 C 92.95 150.29 103.81 150.33 116.21 153.63 C 132.84 158.06 144.12 166.32 148.83 177.52 C 148.88 177.61 149.39 178.66 149.76 180.25 L 202.55 171.32 C 202.75 171.30 206.40 170.82 208.86 172.97 C 210.26 174.19 210.97 175.94 210.97 178.18 C 210.97 185.35 203.01 189.11 202.67 189.27 L 147.49 215.40 C 146.88 215.67 135.88 220.53 124.79 220.53 Z M 93.99 210.82 C 99.46 211.34 110.37 214.22 116.66 216.35 C 128.76 220.38 146.06 212.75 146.24 212.67 L 201.40 186.55 C 201.47 186.51 207.97 183.42 207.97 178.18 C 207.97 176.84 207.62 175.87 206.90 175.24 C 205.48 173.98 203.02 174.28 203.00 174.29 L 150.12 183.23 C 150.15 185.66 149.46 188.51 146.98 190.99 C 142.22 195.75 135.41 191.45 132.47 188.51 C 132.42 188.47 125.28 181.75 117.48 178.33 C 116.72 178.00 116.38 177.11 116.71 176.35 C 117.04 175.60 117.92 175.25 118.69 175.58 C 126.98 179.22 134.25 186.07 134.56 186.36 C 134.65 186.45 141.03 192.70 144.86 188.86 C 146.94 186.79 147.26 184.27 147.05 182.27 C 147.05 182.26 147.04 182.24 147.04 182.22 C 147.03 182.16 147.02 182.09 147.02 182.02 C 146.78 180.16 146.12 178.80 146.11 178.77 C 136.65 156.28 101.68 153.64 93.99 153.33 L 93.99 210.82 Z" fill="#6e6e96" fill-rule="nonzero" group-id="8,12" node-id="367" stroke="none" target-height="70.24301" target-width="119.989006" target-x="90.986" target-y="150.288"></path><path d="M 92.49 202.11 C 92.49 202.11 101.59 201.29 113.89 208.44 C 128.04 216.67 155.05 201.78 168.98 195.93 C 185.23 189.10 208.50 184.82 208.50 177.21 C 208.50 169.60 209.47 178.18 209.47 178.18 C 209.47 178.18 208.06 185.39 200.70 188.46 C 193.34 191.53 146.85 214.04 146.85 214.04 C 146.85 214.04 129.85 222.71 114.73 217.29 C 101.73 212.63 92.48 212.23 92.48 212.23 L 92.49 202.11 Z" fill="#966e6e" fill-opacity="0.15" fill-rule="nonzero" group-id="8,12,26" node-id="371" stroke="none" target-height="53.10701" target-width="116.989" target-x="92.485" target-y="169.603"></path><path d="M 116.65 171.23 C 116.65 171.23 108.85 172.20 112.75 179.03 C 116.65 185.85 128.03 184.23 133.23 194.96 C 138.43 205.68 154.15 193.44 151.46 181.48 L 148.52 181.97 L 146.40 175.86 C 146.40 175.86 147.62 196.02 137.13 185.53 C 129.86 178.26 122.83 171.23 116.65 171.23 Z" fill="#966e6e" fill-opacity="0.15" fill-rule="nonzero" group-id="8,12,27" node-id="376" stroke="none" target-height="34.455" target-width="45.295998" target-x="108.852" target-y="171.229"></path><path d="M 66.60 220.47 C 66.60 220.47 96.44 219.71 75.37 205.03 C 66.79 199.05 92.48 215.76 92.48 207.96 C 92.48 207.96 90.19 220.48 84.25 220.48 C 78.30 220.47 66.60 220.47 66.60 220.47 Z" fill="#6e6e96" fill-opacity="0.21" fill-rule="nonzero" group-id="8,12,28" node-id="381" stroke="none" target-height="21.429" target-width="29.846" target-x="66.598" target-y="199.048"></path></g><path d="M 64.99 216.16 C 64.99 219.69 62.10 222.58 58.57 222.58 L 56.75 222.58 C 53.22 222.58 50.33 219.69 50.33 216.16 L 50.33 145.50 C 50.33 141.96 53.22 139.07 56.75 139.07 L 58.57 139.07 C 62.10 139.07 64.99 141.96 64.99 145.50 L 64.99 216.16 Z" fill="#ffffff" fill-rule="nonzero" group-id="8" node-id="385" stroke="none" target-height="83.509" target-width="14.661995" target-x="50.33" target-y="139.073"></path><path d="M 58.57 224.08 L 56.75 224.08 C 52.38 224.08 48.83 220.53 48.83 216.16 L 48.83 145.50 C 48.83 141.13 52.38 137.57 56.75 137.57 L 58.57 137.57 C 62.94 137.57 66.49 141.13 66.49 145.50 L 66.49 216.16 C 66.49 220.53 62.94 224.08 58.57 224.08 Z M 56.75 140.57 C 54.04 140.57 51.83 142.78 51.83 145.50 L 51.83 216.16 C 51.83 218.87 54.04 221.08 56.75 221.08 L 58.57 221.08 C 61.28 221.08 63.49 218.87 63.49 216.16 L 63.49 145.50 C 63.49 142.78 61.28 140.57 58.57 140.57 L 56.75 140.57 Z" fill="#6e6e96" fill-rule="nonzero" group-id="8" node-id="387" stroke="none" target-height="86.509" target-width="17.661995" target-x="48.831" target-y="137.573"></path><path d="M 58.17 213.35 L 56.35 213.35 C 52.82 213.35 49.93 210.46 49.93 206.92 L 49.93 216.56 C 49.93 220.09 52.82 222.98 56.35 222.98 L 58.17 222.98 C 61.70 222.98 64.59 220.09 64.59 216.56 L 64.59 206.92 C 64.59 210.46 61.70 213.35 58.17 213.35 Z" fill="#6e6e96" fill-opacity="0.15" fill-rule="nonzero" group-id="8,13" node-id="391" stroke="none" target-height="16.061996" target-width="14.663002" target-x="49.928" target-y="206.921"></path></g></svg>